<svg width="25" height="24" viewBox="0 0 25 24" fill="none" xmlns="http://www.w3.org/2000/svg">
<path d="M12.2001 4C13.2609 4 14.2784 4.42143 15.0285 5.17157C15.7786 5.92172 16.2001 6.93913 16.2001 8C16.2001 9.06087 15.7786 10.0783 15.0285 10.8284C14.2784 11.5786 13.2609 12 12.2001 12C11.1392 12 10.1218 11.5786 9.37165 10.8284C8.6215 10.0783 8.20007 9.06087 8.20007 8C8.20007 6.93913 8.6215 5.92172 9.37165 5.17157C10.1218 4.42143 11.1392 4 12.2001 4ZM12.2001 14C16.6201 14 20.2001 15.79 20.2001 18V19.5C20.2001 19.7761 19.9762 20 19.7001 20H4.70007C4.42393 20 4.20007 19.7761 4.20007 19.5V18C4.20007 15.79 7.78007 14 12.2001 14Z" fill="white"/>
</svg>
