<svg width="21" height="20" viewBox="0 0 21 20" fill="none" xmlns="http://www.w3.org/2000/svg">
<g clip-path="url(#clip0_70_38)">
<path d="M9.54993 2.49999C7.89232 2.49999 6.30261 3.15847 5.13051 4.33057C3.95841 5.50267 3.29993 7.09238 3.29993 8.74999C3.29993 10.4076 3.95841 11.9973 5.13051 13.1694C6.30261 14.3415 7.89232 15 9.54993 15C11.2075 15 12.7972 14.3415 13.9693 13.1694C15.1414 11.9973 15.7999 10.4076 15.7999 8.74999C15.7999 7.09238 15.1414 5.50267 13.9693 4.33057C12.7972 3.15847 11.2075 2.49999 9.54993 2.49999ZM0.799927 8.74999C0.799929 7.36406 1.12915 5.99796 1.76047 4.76418C2.39179 3.53039 3.30715 2.46422 4.43118 1.65345C5.55522 0.84269 6.85576 0.310525 8.22572 0.100782C9.59568 -0.10896 10.9959 0.00971958 12.311 0.447048C13.6261 0.884377 14.8185 1.62785 15.7901 2.61623C16.7616 3.60461 17.4845 4.80964 17.8991 6.13208C18.3138 7.45452 18.4084 8.85655 18.1751 10.2227C17.9662 11.4463 17.4996 12.6099 16.8081 13.6369C16.6693 13.8431 16.6879 14.1204 16.8637 14.2962L20.0801 17.5116C20.2754 17.7068 20.2755 18.0233 20.0803 18.2186L19.0197 19.2799C18.8245 19.4753 18.5078 19.4754 18.3125 19.2801L15.0974 16.065C14.9216 15.8892 14.6443 15.8706 14.4381 16.0095C13.2148 16.8335 11.8008 17.3362 10.327 17.4676C8.70919 17.6119 7.08315 17.303 5.63094 16.5755C4.17872 15.848 2.95765 14.7307 2.10443 13.3486C1.25121 11.9665 0.799519 10.3742 0.799927 8.74999Z" fill="white"/>
</g>
<defs>
<clipPath id="clip0_70_38">
<rect width="20" height="20" fill="white" transform="translate(0.799927)"/>
</clipPath>
</defs>
</svg>
