<svg width="25" height="24" viewBox="0 0 25 24" fill="none" xmlns="http://www.w3.org/2000/svg">
<path d="M19.4101 11.7024C19.4146 12.0471 19.3429 12.3886 19.2001 12.7024C19.0501 13.0344 18.8201 13.3224 18.5301 13.5424L8.8801 21.0524C8.54039 21.3114 8.13525 21.4707 7.7101 21.5124H7.4801C7.13249 21.5125 6.78979 21.4302 6.4801 21.2724C6.10431 21.0878 5.7863 20.8038 5.56063 20.4512C5.33495 20.0986 5.21026 19.6909 5.2001 19.2724V5.27235C5.19803 4.8591 5.31239 4.45362 5.5301 4.10235C5.74078 3.75112 6.04256 3.46342 6.40347 3.26977C6.76437 3.07611 7.17095 2.98371 7.5801 3.00235C7.9921 3.02235 8.3921 3.15035 8.7401 3.37235L18.4001 9.81235C18.6941 10.0164 18.9401 10.2824 19.1201 10.5924C19.3101 10.9324 19.4101 11.3134 19.4101 11.7024Z" fill="white"/>
</svg>
